<svg width="68" height="55" viewBox="0 0 68 55" fill="none" xmlns="http://www.w3.org/2000/svg">
<path d="M0.5 0H67.5V55H0.5V0Z" fill="white"/>
<path d="M48.2422 34.8643C48.2422 38.5199 45.2787 41.4834 41.623 41.4834C37.9674 41.4834 35.0039 38.5199 35.0039 34.8643C35.0039 31.2086 37.9674 28.2451 41.623 28.2451C45.2787 28.2451 48.2422 31.2086 48.2422 34.8643Z" fill="url(#paint0_linear_502_5090)"/>
<path d="M19.7461 37.4834C19.7461 39.6925 21.537 41.4834 23.7461 41.4834H28.9688C31.1779 41.4834 32.9688 39.6925 32.9688 37.4834V29.2607C32.9688 28.7085 32.521 28.2607 31.9688 28.2607H23.7461C21.537 28.2607 19.7461 30.0516 19.7461 32.2607V37.4834Z" fill="url(#paint1_linear_502_5090)"/>
<path d="M47.9688 16.9536C47.9688 14.7445 46.1779 12.9536 43.9688 12.9536H38.7461C36.537 12.9536 34.7461 14.7445 34.7461 16.9536V25.1763C34.7461 25.7286 35.1938 26.1763 35.7461 26.1763H43.9688C46.1779 26.1763 47.9688 24.3854 47.9688 22.1763V16.9536Z" fill="url(#paint2_linear_502_5090)"/>
<path d="M19.7461 16.9537C19.7461 14.7446 21.537 12.9537 23.7461 12.9537H28.9688C31.1779 12.9537 32.9688 14.7446 32.9688 16.9537V25.1764C32.9688 25.7287 32.5211 26.1764 31.9688 26.1764H23.7461C21.537 26.1764 19.7461 24.3855 19.7461 22.1764V16.9537Z" fill="url(#paint3_linear_502_5090)"/>
<defs>
<linearGradient id="paint0_linear_502_5090" x1="33.9941" y1="12.9536" x2="33.9941" y2="41.4834" gradientUnits="userSpaceOnUse">
<stop stop-color="#5199FE"/>
<stop offset="1" stop-color="#7469FC"/>
</linearGradient>
<linearGradient id="paint1_linear_502_5090" x1="33.9941" y1="12.9536" x2="33.9941" y2="41.4834" gradientUnits="userSpaceOnUse">
<stop stop-color="#5199FE"/>
<stop offset="1" stop-color="#7469FC"/>
</linearGradient>
<linearGradient id="paint2_linear_502_5090" x1="33.9941" y1="12.9536" x2="33.9941" y2="41.4834" gradientUnits="userSpaceOnUse">
<stop stop-color="#5199FE"/>
<stop offset="1" stop-color="#7469FC"/>
</linearGradient>
<linearGradient id="paint3_linear_502_5090" x1="33.9941" y1="12.9536" x2="33.9941" y2="41.4834" gradientUnits="userSpaceOnUse">
<stop stop-color="#5199FE"/>
<stop offset="1" stop-color="#7469FC"/>
</linearGradient>
</defs>
</svg>
