<svg width="60" height="61" viewBox="0 0 60 61" fill="none" xmlns="http://www.w3.org/2000/svg">
<circle cx="30" cy="30.5" r="30" fill="white"/>
<g clip-path="url(#clip0_410_5995)">
<path d="M20.2596 17.6573C19.0967 17.7944 18.1979 18.7491 18.1167 19.9373C18.0811 20.4147 18.1624 20.8057 18.3807 21.2475C18.5382 21.5573 18.9444 21.9787 23.0018 26.0311L27.4452 30.4745L22.9561 34.9686C18.2538 39.6811 18.2639 39.6709 18.0811 40.2955C17.9694 40.6815 17.9745 41.3772 18.0964 41.7682C18.335 42.535 18.8936 43.0733 19.6604 43.2713C20.026 43.3678 20.8842 43.3678 21.2296 43.2764C21.8796 43.1037 21.8135 43.1647 26.5311 38.4471L30.9745 34.0037L35.4432 38.4674C40.1608 43.1799 40.0491 43.0784 40.7042 43.2662C41.0952 43.383 41.9229 43.383 42.3089 43.2713C43.3397 42.9768 43.9999 42.078 43.9999 40.9659C43.9999 40.4174 43.8729 39.9705 43.6139 39.5795C43.5124 39.4323 41.4303 37.3198 38.9827 34.8823L34.5292 30.4592L38.9776 25.9955C43.1874 21.7756 43.4311 21.5217 43.5682 21.2069C43.9897 20.242 43.7866 19.1198 43.0655 18.4139C42.5069 17.8655 42.0092 17.6776 41.1917 17.7131C40.5721 17.7436 40.2319 17.8604 39.8003 18.1854C39.6378 18.3073 37.5862 20.3284 35.2452 22.6744L30.9796 26.9401L26.5464 22.5272C23.3979 19.394 22.037 18.0737 21.844 17.967C21.3768 17.6979 20.8233 17.5912 20.2596 17.6573Z" fill="#76ADFE"/>
</g>
<defs>
<clipPath id="clip0_410_5995">
<rect width="26" height="26" fill="white" transform="translate(18 17.5)"/>
</clipPath>
</defs>
</svg>
