<svg width="68" height="55" viewBox="0 0 68 55" fill="none" xmlns="http://www.w3.org/2000/svg">
<path d="M0.5 0H67.5V55H0.5V0Z" fill="white"/>
<g clip-path="url(#clip0_502_5098)">
<path d="M31.125 11.3785C30.4375 11.6223 29.8938 12.091 29.5563 12.741C29.475 12.8973 29.0813 14.1723 28.6875 15.5848L27.9688 18.1473L25.75 18.1785L23.5312 18.2098L23.0938 18.4223C22.5188 18.7035 22.025 19.1973 21.7438 19.7723C21.5375 20.1973 21.5312 20.2285 21.5312 20.991C21.5312 21.7535 21.5375 21.7848 21.7438 22.2098C22.025 22.7848 22.5188 23.2785 23.0938 23.5598L23.5312 23.7723L24.9563 23.791L26.375 23.8098L26.3375 23.9473C26.3187 24.0223 25.8875 25.5598 25.3812 27.366L24.4625 30.6473L22.4313 30.6785L20.4062 30.7098L19.9688 30.9223C19.3938 31.2035 18.9 31.6973 18.6188 32.2723C18.4125 32.6973 18.4062 32.7285 18.4062 33.491C18.4062 34.2535 18.4125 34.2848 18.6188 34.7098C18.9 35.2848 19.3938 35.7785 19.9688 36.0598L20.4062 36.2723L21.6437 36.291C22.85 36.3098 22.8812 36.316 22.8375 36.441C22.6438 37.066 21.925 39.7285 21.8688 40.0285C21.6625 41.2035 22.3563 42.4785 23.4813 43.0098C23.8438 43.1785 23.9938 43.2098 24.5125 43.2285C25.2812 43.2598 25.8187 43.116 26.35 42.7223C27.1125 42.1598 27.2 41.9723 28.0625 38.8973L28.7875 36.3348L31.4625 36.316C33.6813 36.3035 34.1313 36.316 34.1062 36.3848C33.9875 36.691 33.1313 39.891 33.0938 40.1473C32.95 41.266 33.6625 42.5035 34.7313 43.0098C35.0938 43.1785 35.2437 43.2098 35.7625 43.2285C36.5312 43.2598 37.0688 43.116 37.6 42.7223C38.3625 42.1598 38.45 41.9723 39.3125 38.8973L40.0312 36.3348L42.25 36.3035L44.4688 36.2723L44.9062 36.0598C45.4813 35.7785 45.975 35.2848 46.2563 34.7098C46.4625 34.2848 46.4688 34.2535 46.4688 33.491C46.4688 32.7285 46.4625 32.6973 46.2563 32.2723C45.975 31.6973 45.4813 31.2035 44.9062 30.9223L44.4688 30.7098L43.0438 30.691L41.625 30.6723L41.6625 30.5348C41.6812 30.4598 42.1125 28.9223 42.6187 27.116L43.5375 23.8348L45.5688 23.8035L47.5938 23.7723L48.0312 23.5598C48.6063 23.2785 49.1 22.7848 49.3813 22.2098C49.5875 21.7848 49.5938 21.7535 49.5938 20.991C49.5938 20.2285 49.5875 20.1973 49.3813 19.7723C49.1 19.1973 48.6063 18.7035 48.0312 18.4223L47.5938 18.2098L46.3563 18.191L45.1187 18.166L45.1625 18.0348C45.35 17.441 46.075 14.7598 46.1313 14.4535C46.3375 13.2785 45.6438 12.0035 44.5188 11.4723C44.1562 11.3035 44.0063 11.2723 43.4875 11.2535C42.7188 11.2223 42.1812 11.366 41.65 11.7598C40.8875 12.3223 40.8 12.5098 39.9375 15.5848L39.2188 18.1473L36.5438 18.166L33.8688 18.1785L33.9125 18.041C34.1 17.441 34.825 14.7598 34.8813 14.4535C35.0813 13.2973 34.425 12.0473 33.3188 11.5035C32.8813 11.291 32.8125 11.2723 32.1938 11.2535C31.6375 11.241 31.4688 11.2598 31.125 11.3785ZM37.5938 23.941C37.5688 24.0223 37.1375 25.5598 36.6313 27.366L35.7125 30.6473L33.0375 30.666C30.5125 30.6785 30.3688 30.6723 30.4 30.5723C30.4187 30.5098 30.8438 28.9973 31.3438 27.2098C31.8438 25.4223 32.2625 23.9223 32.2812 23.8785C32.3 23.8223 32.9 23.8035 34.9688 23.8035H37.625L37.5938 23.941Z" fill="url(#paint0_linear_502_5098)"/>
</g>
<defs>
<linearGradient id="paint0_linear_502_5098" x1="34" y1="43.2327" x2="34" y2="11.2494" gradientUnits="userSpaceOnUse">
<stop stop-color="#716CFC"/>
<stop offset="1" stop-color="#5396FE"/>
</linearGradient>
<clipPath id="clip0_502_5098">
<rect width="32" height="32" fill="white" transform="translate(18 11.241)"/>
</clipPath>
</defs>
</svg>
